#Comment line ignore any data following # character 
#Hierarchical Translation and Rotation (.htr) file 
[Header]	
#Header keywords are followed by a single value 
FileType HTR		#Single word string
DataType HTRS		#Translation followed by rotation and scale data
FileVersion 1		#integer
NumSegments 84		#integer
NumFrames 2		#integer
DataFrameRate 30		#integer, data frame rate in this file
EulerRotationOrder ZYX
CalibrationUnits mm
RotationUnits Degrees
GlobalAxisofGravity Y
BoneLengthAxis Y
ScaleFactor 1.00
[SegmentNames&Hierarchy]
#CHILD	PARENT
MASTER GLOBAL
root MASTER
chest root
L_mid_tent01 root
R_mid_tent01 root
spine01 root
Bip01_Neck chest
L_humerus chest
R_humerus chest
weapon_bone chest
Bip01_Head Bip01_Neck
eye_left_bone Bip01_Head
eye_right_bone Bip01_Head
L_forearm L_humerus
L_front_hand L_forearm
L_weapon_bone L_forearm
L_front_hand01_01 L_front_hand
L_front_hand02_01 L_front_hand
L_front_hand03_01 L_front_hand
L_front_hand01_02 L_front_hand01_01
L_front_hand02_02 L_front_hand02_01
L_front_hand03_02 L_front_hand03_01
R_forearm R_humerus
R_front_hand R_forearm
R_weapon_bone R_forearm
R_front_hand01_01 R_front_hand
R_front_hand02_01 R_front_hand
R_front_hand03_01 R_front_hand
R_front_hand01_02 R_front_hand01_01
R_front_hand02_02 R_front_hand02_01
R_front_hand03_02 R_front_hand03_01
null_rope01_connect L_mid_tent01
Rope1_Seg01 null_rope01_connect
Rope1_Seg02 Rope1_Seg01
Rope1_Seg03 Rope1_Seg02
Rope1_Seg04 Rope1_Seg03
Rope1_Seg05 Rope1_Seg04
Rope1_Seg06 Rope1_Seg05
Rope1_Seg07 Rope1_Seg06
Rope1_Seg09 Rope1_Seg07
L_mid_hand01 Rope1_Seg09
L_mid_hand02 Rope1_Seg09
L_mid_hand03 Rope1_Seg09
null_rope02_connect R_mid_tent01
Rope2_Seg01 null_rope02_connect
Rope2_Seg02 Rope2_Seg01
Rope2_Seg03 Rope2_Seg02
Rope2_Seg04 Rope2_Seg03
Rope2_Seg05 Rope2_Seg04
Rope2_Seg06 Rope2_Seg05
Rope2_Seg07 Rope2_Seg06
Rope2_Seg09 Rope2_Seg07
R_mid_hand01 Rope2_Seg09
R_mid_hand02 Rope2_Seg09
R_mid_hand03 Rope2_Seg09
spine02 spine01
spine03 spine02
pelvis spine03
null_rope03_connect pelvis
null_rope04_connect pelvis
Rope3_Seg01 null_rope03_connect
Rope3_Seg02 Rope3_Seg01
Rope3_Seg03 Rope3_Seg02
Rope3_Seg04 Rope3_Seg03
Rope3_Seg05 Rope3_Seg04
Rope3_Seg06 Rope3_Seg05
Rope3_Seg07 Rope3_Seg06
Rope3_Seg08 Rope3_Seg07
Rope3_Seg09 Rope3_Seg08
R_rear_hand01 Rope3_Seg09
R_rear_hand02 Rope3_Seg09
R_rear_hand03 Rope3_Seg09
Rope4_Seg01 null_rope04_connect
Rope4_Seg02 Rope4_Seg01
Rope4_Seg03 Rope4_Seg02
Rope4_Seg04 Rope4_Seg03
Rope4_Seg05 Rope4_Seg04
Rope4_Seg06 Rope4_Seg05
Rope4_Seg07 Rope4_Seg06
Rope4_Seg08 Rope4_Seg07
Rope4_Seg09 Rope4_Seg08
L_rear_hand01 Rope4_Seg09
L_rear_hand02 Rope4_Seg09
L_rear_hand03 Rope4_Seg09
[BasePosition]
#SegmentName Tx, Ty, Tz, Rx, Ry, Rz, BoneLength
MASTER 0.000000 0.000000 0.000000 -90.000000 0.000000 0.000000 10.000000 
root 0.000000 0.000000 0.000000 0.000000 0.000000 0.000000 10.000000 
chest 0.000000 0.000000 0.000000 0.000000 0.000000 0.000000 10.000000 
L_mid_tent01 0.000000 0.000000 0.000000 0.000000 0.000000 0.000000 10.000000 
R_mid_tent01 0.000000 0.000000 0.000000 0.000000 0.000000 0.000000 10.000000 
spine01 0.000000 0.000000 0.000000 0.000000 0.000000 0.000000 10.000000 
Bip01_Neck 0.000000 0.000000 0.000000 0.000000 0.000000 0.000000 10.000000 
L_humerus 0.000000 0.000000 0.000000 0.000000 0.000000 0.000000 10.000000 
R_humerus 0.000000 0.000000 0.000000 0.000000 0.000000 0.000000 10.000000 
weapon_bone 0.000000 0.000000 0.000000 0.000000 0.000000 0.000000 10.000000 
Bip01_Head 0.000000 0.000000 0.000000 0.000000 0.000000 0.000000 10.000000 
eye_left_bone 0.000000 0.000000 0.000000 0.000000 0.000000 0.000000 10.000000 
eye_right_bone 0.000000 0.000000 0.000000 0.000000 0.000000 0.000000 10.000000 
L_forearm 0.000000 0.000000 0.000000 0.000000 0.000000 0.000000 10.000000 
L_front_hand 0.000000 0.000000 0.000000 0.000000 0.000000 0.000000 10.000000 
L_weapon_bone 0.000000 0.000000 0.000000 0.000000 0.000000 0.000000 10.000000 
L_front_hand01_01 0.000000 0.000000 0.000000 0.000000 0.000000 0.000000 10.000000 
L_front_hand02_01 0.000000 0.000000 0.000000 0.000000 0.000000 0.000000 10.000000 
L_front_hand03_01 0.000000 0.000000 0.000000 0.000000 0.000000 0.000000 10.000000 
L_front_hand01_02 0.000000 0.000000 0.000000 0.000000 0.000000 0.000000 10.000000 
L_front_hand02_02 0.000000 0.000000 0.000000 0.000000 0.000000 0.000000 10.000000 
L_front_hand03_02 0.000000 0.000000 0.000000 0.000000 0.000000 0.000000 10.000000 
R_forearm 0.000000 0.000000 0.000000 0.000000 0.000000 0.000000 10.000000 
R_front_hand 0.000000 0.000000 0.000000 0.000000 0.000000 0.000000 10.000000 
R_weapon_bone 0.000000 0.000000 0.000000 0.000000 0.000000 0.000000 10.000000 
R_front_hand01_01 0.000000 0.000000 0.000000 0.000000 0.000000 0.000000 10.000000 
R_front_hand02_01 0.000000 0.000000 0.000000 0.000000 0.000000 0.000000 10.000000 
R_front_hand03_01 0.000000 0.000000 0.000000 0.000000 0.000000 0.000000 10.000000 
R_front_hand01_02 0.000000 0.000000 0.000000 0.000000 0.000000 0.000000 10.000000 
R_front_hand02_02 0.000000 0.000000 0.000000 0.000000 0.000000 0.000000 10.000000 
R_front_hand03_02 0.000000 0.000000 0.000000 0.000000 0.000000 0.000000 10.000000 
null_rope01_connect 0.000000 0.000000 0.000000 0.000000 0.000000 0.000000 10.000000 
Rope1_Seg01 0.000000 0.000000 0.000000 0.000000 0.000000 0.000000 10.000000 
Rope1_Seg02 0.000000 0.000000 0.000000 0.000000 0.000000 0.000000 10.000000 
Rope1_Seg03 0.000000 0.000000 0.000000 0.000000 0.000000 0.000000 10.000000 
Rope1_Seg04 0.000000 0.000000 0.000000 0.000000 0.000000 0.000000 10.000000 
Rope1_Seg05 0.000000 0.000000 0.000000 0.000000 0.000000 0.000000 10.000000 
Rope1_Seg06 0.000000 0.000000 0.000000 0.000000 0.000000 0.000000 10.000000 
Rope1_Seg07 0.000000 0.000000 0.000000 0.000000 0.000000 0.000000 10.000000 
Rope1_Seg09 0.000000 0.000000 0.000000 0.000000 0.000000 0.000000 10.000000 
L_mid_hand01 0.000000 0.000000 0.000000 0.000000 0.000000 0.000000 10.000000 
L_mid_hand02 0.000000 0.000000 0.000000 0.000000 0.000000 0.000000 10.000000 
L_mid_hand03 0.000000 0.000000 0.000000 0.000000 0.000000 0.000000 10.000000 
null_rope02_connect 0.000000 0.000000 0.000000 0.000000 0.000000 0.000000 10.000000 
Rope2_Seg01 0.000000 0.000000 0.000000 0.000000 0.000000 0.000000 10.000000 
Rope2_Seg02 0.000000 0.000000 0.000000 0.000000 0.000000 0.000000 10.000000 
Rope2_Seg03 0.000000 0.000000 0.000000 0.000000 0.000000 0.000000 10.000000 
Rope2_Seg04 0.000000 0.000000 0.000000 0.000000 0.000000 0.000000 10.000000 
Rope2_Seg05 0.000000 0.000000 0.000000 0.000000 0.000000 0.000000 10.000000 
Rope2_Seg06 0.000000 0.000000 0.000000 0.000000 0.000000 0.000000 10.000000 
Rope2_Seg07 0.000000 0.000000 0.000000 0.000000 0.000000 0.000000 10.000000 
Rope2_Seg09 0.000000 0.000000 0.000000 0.000000 0.000000 0.000000 10.000000 
R_mid_hand01 0.000000 0.000000 0.000000 0.000000 0.000000 0.000000 10.000000 
R_mid_hand02 0.000000 0.000000 0.000000 0.000000 0.000000 0.000000 10.000000 
R_mid_hand03 0.000000 0.000000 0.000000 0.000000 0.000000 0.000000 10.000000 
spine02 0.000000 0.000000 0.000000 0.000000 0.000000 0.000000 10.000000 
spine03 0.000000 0.000000 0.000000 0.000000 0.000000 0.000000 10.000000 
pelvis 0.000000 0.000000 0.000000 0.000000 0.000000 0.000000 10.000000 
null_rope03_connect 0.000000 0.000000 0.000000 0.000000 0.000000 0.000000 10.000000 
null_rope04_connect 0.000000 0.000000 0.000000 0.000000 0.000000 0.000000 10.000000 
Rope3_Seg01 0.000000 0.000000 0.000000 0.000000 0.000000 0.000000 10.000000 
Rope3_Seg02 0.000000 0.000000 0.000000 0.000000 0.000000 0.000000 10.000000 
Rope3_Seg03 0.000000 0.000000 0.000000 0.000000 0.000000 0.000000 10.000000 
Rope3_Seg04 0.000000 0.000000 0.000000 0.000000 0.000000 0.000000 10.000000 
Rope3_Seg05 0.000000 0.000000 0.000000 0.000000 0.000000 0.000000 10.000000 
Rope3_Seg06 0.000000 0.000000 0.000000 0.000000 0.000000 0.000000 10.000000 
Rope3_Seg07 0.000000 0.000000 0.000000 0.000000 0.000000 0.000000 10.000000 
Rope3_Seg08 0.000000 0.000000 0.000000 0.000000 0.000000 0.000000 10.000000 
Rope3_Seg09 0.000000 0.000000 0.000000 0.000000 0.000000 0.000000 10.000000 
R_rear_hand01 0.000000 0.000000 0.000000 0.000000 0.000000 0.000000 10.000000 
R_rear_hand02 0.000000 0.000000 0.000000 0.000000 0.000000 0.000000 10.000000 
R_rear_hand03 0.000000 0.000000 0.000000 0.000000 0.000000 0.000000 10.000000 
Rope4_Seg01 0.000000 0.000000 0.000000 0.000000 0.000000 0.000000 10.000000 
Rope4_Seg02 0.000000 0.000000 0.000000 0.000000 0.000000 0.000000 10.000000 
Rope4_Seg03 0.000000 0.000000 0.000000 0.000000 0.000000 0.000000 10.000000 
Rope4_Seg04 0.000000 0.000000 0.000000 0.000000 0.000000 0.000000 10.000000 
Rope4_Seg05 0.000000 0.000000 0.000000 0.000000 0.000000 0.000000 10.000000 
Rope4_Seg06 0.000000 0.000000 0.000000 0.000000 0.000000 0.000000 10.000000 
Rope4_Seg07 0.000000 0.000000 0.000000 0.000000 0.000000 0.000000 10.000000 
Rope4_Seg08 0.000000 0.000000 0.000000 0.000000 0.000000 0.000000 10.000000 
Rope4_Seg09 0.000000 0.000000 0.000000 0.000000 0.000000 0.000000 10.000000 
L_rear_hand01 0.000000 0.000000 0.000000 0.000000 0.000000 0.000000 10.000000 
L_rear_hand02 0.000000 0.000000 0.000000 0.000000 0.000000 0.000000 10.000000 
L_rear_hand03 0.000000 0.000000 0.000000 0.000000 0.000000 0.000000 10.000000 
#Beginning of Data. Separated by tabs
#Fr	Tx	Ty	Tz	Rx	Ry	Rz	SF
[MASTER]
32 0.000000 0.000000 0.000000 0.001660 0.001660 0.001660 0.000000
33 0.000000 0.000000 0.000000 0.001660 0.001660 0.001660 0.000000
[root]
32 67.456795 -55.424526 1510.470581 -108.511650 14.995273 -87.656242 1512.991699
33 60.360897 -54.154594 1525.922729 -108.150208 14.421519 -87.465157 1528.076050
[chest]
32 -86.836601 -33.005978 -30.127239 7.759684 -8.422211 173.662964 97.660843
33 -86.836601 -33.005978 -30.127239 6.461012 -8.490713 172.948044 97.660843
[L_mid_tent01]
32 27.299498 22.177580 -249.918289 -6.326039 20.657722 74.668999 252.381180
33 27.299496 22.177580 -249.918289 -6.115032 20.552114 75.194641 252.381180
[R_mid_tent01]
32 23.228794 24.509907 226.238495 -175.995193 -18.522524 65.442055 228.744751
33 23.228794 24.509907 226.238495 -175.998428 -18.414228 65.446922 228.744751
[spine01]
32 -0.361383 -0.195265 0.000000 -0.000001 -0.000007 22.052340 0.410763
33 -0.361383 -0.195265 0.000000 -0.000001 -0.000007 22.052340 0.410763
[Bip01_Neck]
32 165.484543 71.581718 0.000119 175.896118 1.177290 24.871183 180.302734
33 165.484543 71.581718 0.000119 175.896118 1.177290 24.871183 180.302734
[L_humerus]
32 -13.983130 -135.272980 -120.471481 -168.517593 36.033752 -113.483025 181.680161
33 -13.983130 -135.272980 -120.471481 -168.517593 36.033752 -113.483025 181.680161
[R_humerus]
32 -13.983309 -135.273102 125.287651 -179.620148 -19.552614 -121.963249 184.909012
33 -13.983309 -135.273102 125.287651 -179.588654 -28.895130 -122.030510 184.909012
[weapon_bone]
32 235.964890 -300.705902 0.000000 0.000000 -89.951546 -128.212341 382.234833
33 235.964890 -300.705902 0.000000 0.000000 -89.951546 -128.212341 382.234833
[Bip01_Head]
32 189.519882 179.130280 22.124901 -23.626308 5.787232 14.654979 261.715393
33 189.519882 179.130280 22.124903 -23.626308 5.787232 14.654979 261.715393
[eye_left_bone]
32 -24.626970 125.451866 -64.772606 0.000000 -90.000000 -99.840431 143.318359
33 -24.626970 125.451866 -64.772606 0.000000 -90.000000 -99.840431 143.318359
[eye_right_bone]
32 -24.626970 125.451866 64.327362 0.000000 -89.965736 80.156380 143.117676
33 -24.626970 125.451866 64.327362 0.000000 -89.965736 80.156380 143.117676
[L_forearm]
32 322.776093 0.000000 -0.000119 0.000017 0.002347 -89.149834 322.776093
33 322.776093 0.000000 -0.000119 0.000017 0.002347 -89.149834 322.776093
[L_front_hand]
32 241.149185 -0.042021 -3.300071 58.761162 -2.245716 -0.021091 241.171753
33 241.149185 -0.042021 -3.300071 57.186871 -2.246197 -0.020507 241.171753
[L_weapon_bone]
32 156.183838 0.000000 0.000000 0.000014 0.000007 0.000001 156.183838
33 156.183838 0.000000 0.000000 0.000014 0.000007 0.000001 156.183838
[L_front_hand01_01]
32 86.095154 20.947098 -0.655860 -0.366594 -0.477154 75.385574 88.609184
33 86.095154 20.947098 -0.655860 -0.366594 -0.477154 75.385574 88.609184
[L_front_hand02_01]
32 86.935165 -11.437475 24.513514 154.399796 -59.883835 -61.369587 91.046425
33 86.935165 -11.437475 24.513514 154.399796 -59.883835 -61.369587 91.046425
[L_front_hand03_01]
32 86.637497 -14.123976 -20.424902 -153.913849 58.118122 -62.702866 90.126129
33 86.637497 -14.123976 -20.424902 -153.913849 58.118122 -62.702866 90.126129
[L_front_hand01_02]
32 71.020905 -0.000179 0.000030 0.000334 -0.002323 -106.379684 71.020905
33 71.020905 -0.000179 0.000030 0.000334 -0.002323 -106.379684 71.020905
[L_front_hand02_02]
32 71.020927 -0.000119 0.000060 0.000334 -0.002323 -106.379684 71.020927
33 71.020927 -0.000119 0.000060 0.000334 -0.002323 -106.379684 71.020927
[L_front_hand03_02]
32 71.020905 -0.000060 0.000060 0.000334 -0.002323 -106.379684 71.020905
33 71.020905 -0.000060 0.000060 0.000334 -0.002323 -106.379684 71.020905
[R_forearm]
32 322.776428 -0.000060 0.000030 0.213197 0.007525 -93.425262 322.776428
33 322.776428 -0.000060 0.000030 0.213197 0.007525 -93.425262 322.776428
[R_front_hand]
32 238.847015 -0.006795 2.210259 -0.270529 1.703932 2.322530 238.857239
33 238.847015 -0.006795 2.210259 -0.270529 1.703932 2.322530 238.857239
[R_weapon_bone]
32 155.664093 0.002503 -0.000030 0.003487 0.001180 -90.988930 155.664078
33 155.664093 0.002503 -0.000030 0.003487 0.001180 -90.988930 155.664078
[R_front_hand01_01]
32 87.624611 14.231146 22.918642 -154.633499 -59.950619 61.746044 91.683487
33 87.624611 14.231146 22.918642 -154.633499 -59.950619 61.746044 91.683487
[R_front_hand02_01]
32 89.356956 14.367283 -19.491137 154.602661 58.302849 63.744389 92.579636
33 89.356956 14.367283 -19.491137 154.602661 58.302849 63.744389 92.579636
[R_front_hand03_01]
32 87.286232 -22.307278 -0.143439 0.162155 -0.423168 -75.767921 90.091743
33 87.286232 -22.307278 -0.143439 0.162155 -0.423168 -75.767921 90.091743
[R_front_hand01_02]
32 71.020905 0.000060 0.000119 0.002323 -0.000334 106.381714 71.020905
33 71.020905 0.000060 0.000119 0.002323 -0.000334 106.381714 71.020905
[R_front_hand02_02]
32 71.020844 -0.000030 -0.000119 0.002323 -0.000334 106.381714 71.020836
33 71.020844 -0.000030 -0.000119 0.002323 -0.000334 106.381714 71.020836
[R_front_hand03_02]
32 71.020905 0.000000 0.000030 0.002323 -0.000334 106.381714 71.020905
33 71.020905 0.000000 0.000030 0.002323 -0.000334 106.381714 71.020905
[null_rope01_connect]
32 328.732483 0.000000 -0.000238 161.172638 -49.228443 -161.305725 328.732483
33 328.732483 0.000000 -0.000238 161.434753 -49.703739 -161.418625 328.732483
[Rope1_Seg01]
32 0.000000 0.000000 0.000000 -21.947985 79.232452 -14.612133 0.000000
33 0.000000 0.000000 0.000000 -30.682816 78.439613 -24.025194 0.000000
[Rope1_Seg02]
32 139.999863 -0.000179 0.000000 0.140542 3.716776 -5.181359 139.999863
33 139.999863 -0.000179 0.000000 0.226133 3.273629 -4.792556 139.999863
[Rope1_Seg03]
32 139.999924 0.000060 -0.000060 0.324387 5.483437 -7.757463 139.999924
33 139.999924 0.000060 -0.000060 0.478490 4.774933 -7.111024 139.999924
[Rope1_Seg04]
32 139.999924 -0.000060 -0.000119 0.360193 13.231377 -17.969460 139.999924
33 139.999924 -0.000060 -0.000119 1.935285 11.248171 -17.085279 139.999924
[Rope1_Seg05]
32 139.999832 0.000119 -0.000060 7.762536 5.157129 -10.496560 139.999832
33 139.999832 0.000119 -0.000060 5.478412 4.800792 -9.309284 139.999832
[Rope1_Seg06]
32 139.999954 0.000119 -0.000060 -2.310516 -8.033363 10.562069 139.999954
33 139.999954 0.000119 -0.000060 -4.923470 -5.669328 10.722962 139.999954
[Rope1_Seg07]
32 139.999985 0.000060 0.000000 0.357279 -2.464309 2.329055 139.999985
33 139.999985 0.000060 0.000000 -0.424736 -1.578019 2.223537 139.999985
[Rope1_Seg09]
32 121.602913 0.000119 -0.000089 -89.793175 -1.359789 0.847147 121.602913
33 121.602913 0.000119 -0.000089 -89.793175 -1.359789 0.847147 121.602913
[L_mid_hand01]
32 103.859421 1.038730 8.195221 106.855484 -31.239275 -9.461397 104.187431
33 103.859421 1.038730 8.195221 106.855484 -31.239275 -9.461397 104.187431
[L_mid_hand02]
32 105.572853 -4.139662 -10.864139 -142.331345 25.752670 -28.774628 106.211075
33 105.572853 -4.139662 -10.864139 -142.331345 25.752670 -28.774628 106.211075
[L_mid_hand03]
32 104.641464 17.579376 -3.913581 -16.122810 9.734291 34.223598 106.179977
33 104.641464 17.579376 -3.913581 -16.122810 9.734291 34.223598 106.179977
[null_rope02_connect]
32 328.732849 0.000179 -0.000119 -99.635582 83.800552 72.118729 328.732849
33 328.732849 0.000179 -0.000119 -101.319794 83.667480 69.847435 328.732849
[Rope2_Seg01]
32 0.000076 0.000111 0.000153 121.607925 84.006126 -123.117645 0.000203
33 0.000076 0.000111 0.000153 130.292313 83.679230 -114.339256 0.000203
[Rope2_Seg02]
32 139.999741 -0.000060 -0.000119 -3.340632 9.452780 5.427168 139.999756
33 139.999741 -0.000060 -0.000119 -3.370155 8.976613 5.258071 139.999756
[Rope2_Seg03]
32 140.000107 0.000030 0.000000 -6.814417 12.674109 8.951039 140.000107
33 140.000107 0.000030 0.000000 -6.676324 11.991313 8.624909 140.000107
[Rope2_Seg04]
32 139.999802 0.000000 -0.000060 -9.454983 11.497314 10.392780 139.999802
33 139.999802 0.000000 -0.000060 -9.148034 10.990175 10.036814 139.999802
[Rope2_Seg05]
32 139.999985 -0.000060 0.000119 3.309973 -0.723263 -4.211001 139.999985
33 139.999985 -0.000060 0.000119 3.564054 -0.968791 -4.458270 139.999985
[Rope2_Seg06]
32 139.999893 -0.000030 -0.000119 2.261253 -0.770790 -2.729582 139.999893
33 139.999893 -0.000030 -0.000119 2.379910 -0.934001 -2.837771 139.999893
[Rope2_Seg07]
32 139.999893 0.000060 -0.000060 0.584619 0.085271 -0.878256 139.999893
33 139.999893 0.000060 -0.000060 0.674533 -0.027326 -0.957993 139.999893
[Rope2_Seg09]
32 121.338966 0.000089 -0.000060 33.793236 -1.359788 -0.847141 121.338966
33 121.338966 0.000089 -0.000060 33.793236 -1.359788 -0.847141 121.338966
[R_mid_hand01]
32 104.680779 11.144459 -10.335981 -41.523792 25.424656 28.595957 105.778534
33 104.680779 11.144459 -10.335981 -41.523792 25.424656 28.595957 105.778534
[R_mid_hand02]
32 104.070427 2.443552 8.231699 72.847389 -32.746803 10.013901 104.424065
33 104.070427 2.443552 8.231699 72.847389 -32.746803 10.013901 104.424065
[R_mid_hand03]
32 106.028137 -11.221827 -5.996406 -167.901306 10.259192 -37.009720 106.788818
33 106.028137 -11.221827 -5.996406 -167.901306 10.259192 -37.009720 106.788818
[spine02]
32 129.756927 0.001550 0.000119 -0.245322 -4.052059 -4.355546 129.756927
33 129.756927 0.001550 0.000119 -0.245322 -4.052059 -4.355546 129.756927
[spine03]
32 78.613846 0.087372 -4.898873 0.207412 -2.089717 -0.432471 78.766380
33 78.613846 0.087372 -4.898873 0.207412 -2.089717 -0.432471 78.766380
[pelvis]
32 169.435242 0.051022 0.000000 -0.010007 -0.191417 -1.897554 169.435257
33 169.435242 0.051022 0.000000 -0.010007 -0.191417 -1.897554 169.435257
[null_rope03_connect]
32 -1.257226 -2.466202 137.391083 139.141708 -70.866669 -80.197418 137.418976
33 -1.257226 -2.466202 137.391083 138.775421 -71.084702 -79.219650 137.418976
[null_rope04_connect]
32 -1.259640 -2.480268 -137.844437 139.141708 -70.866669 -80.197418 137.872513
33 -1.259640 -2.480268 -137.844437 138.775421 -71.084702 -79.219650 137.872513
[Rope3_Seg01]
32 0.000000 0.000000 0.000000 -156.194412 66.436394 -95.087830 0.000000
33 0.000000 0.000000 0.000000 -155.032227 66.515816 -93.823410 0.000000
[Rope3_Seg02]
32 139.999924 -0.000119 0.000060 3.527426 7.995081 -6.103909 139.999924
33 139.999924 -0.000119 0.000060 3.392878 7.905742 -6.030965 139.999924
[Rope3_Seg03]
32 139.999924 -0.000119 0.000119 6.117654 16.841883 -9.042337 139.999924
33 139.999924 -0.000119 0.000119 5.864280 16.653938 -9.116392 139.999924
[Rope3_Seg04]
32 139.999924 0.000119 0.000000 0.731392 -1.249982 -5.607511 139.999924
33 139.999924 0.000119 0.000000 0.989295 -0.234853 -5.868745 139.999924
[Rope3_Seg05]
32 139.999924 -0.000238 0.000060 -5.914626 -27.053694 5.868179 139.999924
33 139.999924 -0.000238 0.000060 -6.092155 -27.304537 6.442971 139.999924
[Rope3_Seg06]
32 139.999893 -0.000119 -0.000060 0.052684 -9.679152 0.687123 139.999893
33 139.999893 -0.000119 -0.000060 0.021796 -9.962089 0.908270 139.999893
[Rope3_Seg07]
32 139.999771 0.000060 -0.000119 0.628239 -5.219386 0.265128 139.999771
33 139.999771 0.000060 -0.000119 0.618779 -5.296628 0.359222 139.999771
[Rope3_Seg08]
32 139.999985 -0.000060 0.000000 0.699341 -2.982125 0.186304 139.999985
33 139.999985 -0.000060 0.000000 0.694686 -3.020350 0.235671 139.999985
[Rope3_Seg09]
32 90.185997 -0.000179 -0.000060 89.793228 -1.359877 -0.847183 90.185997
33 90.185997 -0.000179 -0.000060 89.793228 -1.359877 -0.847183 90.185997
[R_rear_hand01]
32 103.366196 -6.073594 -10.757982 -161.551193 16.666374 -30.088671 104.101845
33 103.366196 -6.073594 -10.757982 -161.551193 16.666374 -30.088671 104.101845
[R_rear_hand02]
32 100.509819 12.039542 -7.992327 -34.280552 19.289745 28.875523 101.543350
33 100.509819 12.039542 -7.992327 -34.280552 19.289745 28.875523 101.543350
[R_rear_hand03]
32 101.539970 5.215704 5.435467 83.366440 -30.933914 7.284830 101.819031
33 101.539970 5.215704 5.435467 83.366440 -30.933914 7.284830 101.819031
[Rope4_Seg01]
32 0.000010 0.000038 -0.000114 27.783361 67.870720 -134.001297 0.000121
33 0.000010 0.000038 -0.000114 29.440294 66.897720 -132.117889 0.000121
[Rope4_Seg02]
32 139.999985 0.000060 0.000119 -0.383092 1.404278 6.187523 139.999985
33 139.999985 0.000060 0.000119 -0.297197 2.046896 5.721826 139.999985
[Rope4_Seg03]
32 139.999924 0.000000 -0.000238 -0.935271 1.515059 7.478344 139.999924
33 139.999924 0.000000 -0.000238 -0.809082 2.240889 6.935336 139.999924
[Rope4_Seg04]
32 139.999985 0.000000 0.000119 -1.288056 1.325768 6.712674 139.999985
33 139.999985 0.000000 0.000119 -1.101454 1.996517 6.049910 139.999985
[Rope4_Seg05]
32 139.999802 -0.000060 -0.000119 0.461751 0.466431 -1.188414 139.999802
33 139.999802 -0.000060 -0.000119 0.588217 0.528786 -1.514032 139.999802
[Rope4_Seg06]
32 139.999924 0.000000 0.000060 0.416030 0.323367 -0.969842 139.999924
33 139.999924 0.000000 0.000060 0.481250 0.355863 -1.116257 139.999924
[Rope4_Seg07]
32 139.999802 0.000000 0.000000 0.222221 0.303604 -0.131289 139.999802
33 139.999802 0.000000 0.000000 0.277646 0.373315 -0.299129 139.999802
[Rope4_Seg08]
32 139.999924 0.000000 0.000119 -1.393202 0.198530 -0.079892 139.999924
33 139.999924 0.000000 0.000119 -1.356369 0.244278 -0.186708 139.999924
[Rope4_Seg09]
32 90.185791 0.000060 0.000060 -135.617828 2.228885 0.850567 90.185791
33 90.185791 0.000060 0.000060 -135.617828 2.228885 0.850567 90.185791
[L_rear_hand01]
32 101.696655 -8.392275 -7.654577 -34.454281 -18.946800 151.655121 102.329041
33 101.696655 -8.392275 -7.654577 -34.454281 -18.946800 151.655121 102.329041
[L_rear_hand02]
32 102.726799 -1.568258 5.773216 83.407906 30.330435 172.796509 102.900848
33 102.726799 -1.568258 5.773216 83.407906 30.330435 172.796509 102.900848
[L_rear_hand03]
32 104.552910 9.721220 -10.420293 -161.379868 -16.473232 -150.512238 105.519653
33 104.552910 9.721220 -10.420293 -161.379868 -16.473232 -150.512238 105.519653
